<?xml version="1.0" standalone="no"?>
<!DOCTYPE svg PUBLIC "-//W3C//DTD SVG 20010904//EN"
 "http://www.w3.org/TR/2001/REC-SVG-20010904/DTD/svg10.dtd">
<svg version="1.0" xmlns="http://www.w3.org/2000/svg"
 width="512.000000pt" height="512.000000pt" viewBox="0 0 512.000000 512.000000"
 preserveAspectRatio="xMidYMid meet">
<metadata>
Created by potrace 1.14, written by Peter Selinger 2001-2017
</metadata>
<g transform="translate(0.000000,512.000000) scale(0.100000,-0.100000)"
fill="#000000" stroke="none">
<path d="M3500 4603 c-33 -40 -171 -195 -253 -286 -38 -42 -78 -88 -89 -102
-10 -13 -31 -37 -46 -52 -15 -16 -52 -57 -82 -92 -30 -35 -64 -73 -75 -85 -67
-74 -226 -253 -257 -288 -17 -20 -29 -22 -134 -25 l-115 -2 -37 41 c-20 23
-41 46 -47 52 -5 6 -41 47 -79 91 -39 44 -75 85 -80 90 -6 6 -42 46 -81 90
-38 44 -86 98 -106 120 -20 22 -78 87 -129 145 -51 58 -123 139 -160 180 -37
41 -79 90 -94 108 -30 34 -70 43 -80 16 -9 -23 -8 -31 7 -46 7 -7 64 -78 127
-158 63 -80 120 -152 127 -160 18 -22 151 -189 208 -261 28 -35 57 -73 67 -84
9 -11 48 -60 87 -110 40 -49 78 -97 85 -105 16 -20 32 -47 22 -38 -22 19 -283
-80 -322 -123 -17 -18 -46 -19 -838 -19 -775 0 -823 -1 -861 -19 -22 -10 -48
-28 -58 -39 -48 -53 -46 -3 -47 -1607 0 -1009 4 -1522 10 -1547 15 -52 53 -94
103 -113 38 -14 254 -15 2303 -13 l2260 3 43 28 c27 18 50 44 62 70 18 41 19
90 18 1562 0 1615 2 1564 -46 1617 -10 11 -36 29 -58 39 -38 18 -85 19 -821
19 l-781 0 -22 24 c-19 20 -118 72 -156 83 -5 1 -50 12 -100 24 -141 34 -136
22 -53 124 171 210 645 801 652 813 4 7 5 24 2 38 -9 33 -46 32 -76 -3z"/>
</g>
</svg>
